<?xml version="1.0" standalone="no"?><!DOCTYPE svg PUBLIC "-//W3C//DTD SVG 1.1//EN" "http://www.w3.org/Graphics/SVG/1.1/DTD/svg11.dtd"><svg t="1704637399235" class="icon" viewBox="0 0 1469 1024" version="1.1" xmlns="http://www.w3.org/2000/svg" p-id="13084" xmlns:xlink="http://www.w3.org/1999/xlink" width="286.9140625" height="200"><path d="M1190.948141 938.502024c-10.986918 36.237553-49.477271 58.873976-49.47727 58.873976s-20.6848-36.105035-9.697883-72.342588c10.974871-36.237553 49.477271-58.886024 49.477271-58.886024s20.6848 36.117082 9.697882 72.354636z" fill="#3F3D56" p-id="13085"></path><path d="M1169.877835 934.586729c-25.371106 25.371106-28.202165 64.090353-28.202164 64.090353s38.285553-2.409412 63.656658-27.76847c25.359059-25.371106 28.190118-64.090353 28.190118-64.090353s-38.273506 2.409412-63.644612 27.76847z" fill="#2C50EE" p-id="13086"></path><path d="M202.595388 804.562824h50.537412l124.530447-47.344942s88.425412-35.068988 81.209224 31.563294c-7.216188 66.620235-19.853553 156.0576-19.853553 156.0576s-39.707106-17.540518-61.355671-12.288c-21.660612 5.264565-7.228235-106.953788-7.228235-106.953788S193.572141 908.010918 177.332706 897.505882c-16.239435-10.529129-19.853553-84.1728-19.853553-84.1728l45.128282-8.758211z" fill="#2F2E41" p-id="13087"></path><path d="M202.595388 804.562824h50.537412l124.530447-47.344942s88.425412-35.068988 81.209224 31.563294c-7.216188 66.620235-19.853553 156.0576-19.853553 156.0576s-39.707106-17.540518-61.355671-12.288c-21.660612 5.264565-7.228235-106.953788-7.228235-106.953788S193.572141 908.010918 177.332706 897.505882c-16.239435-10.529129-19.853553-84.1728-19.853553-84.1728l45.128282-8.758211z" fill="#000000" opacity=".1" p-id="13088"></path><path d="M268.781929 656.131012l61.656847 86.895435 143.745506 117.808188s132.818824 30.334494 114.627765 51.754165c-18.191059 21.419671-129.192659-21.419671-129.192659-21.419671s-165.574776-117.796141-171.032094-126.723011c-5.457318-8.914824-65.499859-92.810541-65.499859-92.810542l45.694494-15.504564z" fill="#A0616A" p-id="13089"></path><path d="M268.781929 656.131012l61.656847 86.895435 143.745506 117.808188s132.818824 30.334494 114.627765 51.754165c-18.191059 21.419671-129.192659-21.419671-129.192659-21.419671s-165.574776-117.796141-171.032094-126.723011c-5.457318-8.914824-65.499859-92.810541-65.499859-92.810542l45.694494-15.504564z" fill="#FFFAF2" opacity=".877" p-id="13090"></path><path d="M238.832941 577.403482l36.74353 76.824094s-8.348612 37.514541-21.7088 41.092518c-13.372235 3.577976-70.150024-46.453459-70.150024-46.453459l55.115294-71.463153z" fill="#D0CDE1" p-id="13091"></path><path d="M238.832941 577.403482l36.74353 76.824094s-8.348612 37.514541-21.7088 41.092518c-13.372235 3.577976-70.150024-46.453459-70.150024-46.453459l55.115294-71.463153z" fill="#3E60FA" opacity=".1" p-id="13092"></path><path d="M723.233129 776.432941l11.55313 46.031812a2.770824 2.770824 0 0 1-0.060235 1.566118l-52.404706 158.177882a2.975624 2.975624 0 0 1-3.132236 1.975718 2.927435 2.927435 0 0 1-2.6624-2.529883l-7.252329-61.620706a2.770824 2.770824 0 0 1 0.120471-1.216753l48.115952-142.588988a2.975624 2.975624 0 0 1 2.939483-1.987765c1.325176 0.048188 2.469647 0.951718 2.78287 2.192565z" fill="#2F2E41" p-id="13093"></path><path d="M709.451294 774.240376l12.288 42.309271-53.308235 154.527624-12.288-47.826824z" fill="#F2F2F2" p-id="13094"></path><path d="M485.833788 1008.302682c1.807059 5.854871 187.524518-1.939576 189.331577-3.8912 1.566118-2.445553 2.903341-5.059765 3.975529-7.806494 1.686588-3.903247 3.240659-7.806494 3.240659-7.806494l-7.216188-63.150682-183.922447-7.059577s-4.601976 53.525082-5.541647 78.016753c-0.240941 6.180141-0.240941 10.529129 0.12047 11.697694z" fill="#2F2E41" p-id="13095"></path><path d="M652.637365 931.719529l3.493647 52.476989H577.415529V931.719529zM537.624094 944.9472l0.4096-0.120471-1.903435 26.262589h-37.466353v-26.142118zM485.833788 995.291859c1.831153 5.541647 190.680847-1.8432 192.512-3.698447a40.237176 40.237176 0 0 0 4.035765-7.396894H485.701271c-0.240941 5.866918-0.240941 9.999059 0.12047 11.095341z" fill="#000000" opacity=".1" p-id="13096"></path><path d="M262.457224 485.544659m-78.739577 0a78.739576 78.739576 0 1 0 157.479153 0 78.739576 78.739576 0 1 0-157.479153 0Z" fill="#FFF8EA" p-id="13097"></path><path d="M262.457224 540.973176s-25.865035 45.983624-31.033224 70.74033c-5.180235 24.756706-77.583059-49.513412-77.583059-49.513412l-9.493082-25.660235s68.102024-32.707765 62.933835-59.235388c-5.180235-26.527624 55.175529 63.668706 55.17553 63.668705zM271.36 695.5008l74.872471 95.280188 178.934964 128.795106s129.650447 26.467388 100.43633 45.8752c-29.214118 19.407812-113.218259-17.636894-113.218259-17.636894S331.619388 854.293082 293.2736 815.465412c-38.345788-38.815624-109.555953-104.086588-109.555953-104.086588l87.642353-15.890071z" fill="#FFF8EA" p-id="13098"></path><path d="M181.958776 838.065694l20.998024 34.575059 125.289412-40.996141c27.503435-8.999153 57.645176-5.686212 82.04047 10.288188 21.865412 14.336 35.864094 37.080847 4.373083 70.740329-62.994071 67.318965-104.978071 30.9248-104.978071 30.9248s-211.702965 103.725176-246.69967 52.766118c-34.984659-50.947012-36.743529-76.414494-36.74353-76.414494s134.722259-87.341176 155.720282-81.883859z" fill="#2F2E41" p-id="13099"></path><path d="M449.921506 961.090259s57.1392 37.924141-10.721882 55.970635c-67.824941 18.070588-117.820235-7.228235-117.820236-7.228235s-58.922165 0-58.922164-30.683859c0-30.707953 19.636706-34.310024 19.636705-34.310024l60.70513 9.035295s73.197929-19.877647 107.122447 7.216188z" fill="#C3CDFA" p-id="13100"></path><path d="M332.679529 459.113412c5.565741 2.288941 11.083294 4.999529 17.130918 5.662117 6.047624 0.674635 12.938541-1.276988 15.793694-6.26447 1.554071-2.674447 1.722729-5.842824 1.807059-8.89073 0.2048-9.228047-0.505976-19.215059-6.830682-26.358964-4.023718-4.541741-9.902682-7.408941-14.058918-11.854306-2.987671-3.168376-4.975435-7.023435-7.107765-10.745977-8.107671-14.070965-20.094494-27.611859-36.755576-31.671717-6.9632-1.686588-14.263718-1.602259-21.455812-1.51793l-41.971953 0.554165c-6.794541 0.084329-13.685459 0.192753-20.19087 2.011859-13.504753 3.782776-23.335153 14.287812-32.346353 24.347106-6.746353 7.529412-13.492706 15.119059-18.552471 23.696564a78.221553 78.221553 0 0 0-10.6496 40.7552c-0.060235 3.638212 0.445741 7.276424 1.505882 10.782118 1.2288 3.216565 2.770824 6.324706 4.577883 9.312377 7.866729 14.299859 12.540988 32.165647 3.674353 45.971576 15.396141-5.818729 30.635671-13.444518 40.791341-25.636141 4.541741-5.457318 8.107671-11.842259 14.167341-15.841883 6.047624-3.999624 15.914165-4.348988 19.805365 1.51793 1.325176 2.385318 2.023906 5.023624 1.999811 7.710118 0.289129 4.397176 0.277082 8.975059 2.288942 12.974682 2.023906 4.011671 6.830682 7.228235 11.432658 6.035576 7.902871-2.060047 7.143906-13.299953 13.251765-18.395858 4.614024-3.879153 11.757929-3.132235 17.69713-4.903153 6.927059-2.048 12.119341-7.589647 15.082917-13.733647 2.2528-4.686306 2.216659-16.914071 6.469271-19.443953 5.348894-3.168376 17.492329 1.879341 22.44367 3.915294z" fill="#2F2E41" p-id="13101"></path><path d="M133.999435 538.744471c3.674353-0.963765 7.541459-0.951718 11.203765 0.024094 11.637459 3.059953 37.707294 11.143529 43.309176 23.443576 7.252329 15.950306 32.623435 40.767247 32.623436 40.767247s34.442541 33.683576 27.190212 56.7296c-7.252329 23.033976-34.442541 49.633882-34.442542 49.633883s7.252329 109.893271-28.99727 138.252047c-36.261647 28.358776-50.754259 8.854588-50.754259 35.442447 0 26.587859-112.374965 109.905318-134.131953 58.500517 0 0 10.878494-95.713882 7.252329-129.385411-3.577976-33.201694 1.650447-240.290635 126.747106-273.408z" fill="#C3CDFA" p-id="13102"></path><path d="M186.247529 595.052424s106.170729 77.643294 87.015906 110.423341c0 0-64.403576 31.045271-78.329976 29.322541-13.914353-1.722729-67.873129-62.102588-81.79953-67.282824-13.9264-5.180235-20.8896-98.340141 73.101553-72.463058z" fill="#C3CDFA" p-id="13103"></path><path d="M667.756424 326.559624m-90.352942 0a90.352941 90.352941 0 1 0 180.705883 0 90.352941 90.352941 0 1 0-180.705883 0Z" fill="#2C50EE" opacity=".2" p-id="13104"></path><path d="M1417.252141 196.848941H918.588235V91.846776h498.663906v104.978071z m-496.459294-2.216659h494.266729V94.063435H920.7808v100.568847z" fill="#3F3D56" p-id="13105"></path><path d="M879.218447 118.109365h498.663906v104.97807H879.218447z" fill="#2C50EE" p-id="13106"></path><path d="M1469.741176 590.522729H538.021647V0H1469.741176v590.522729z m-929.50287-2.156423h927.286212V2.156424H540.238306v586.209882z" fill="#141737" p-id="13107"></path><path d="M641.204706 25.154259H1469.741176v12.047059H641.204706z" fill="#141737" p-id="13108"></path><path d="M577.403482 39.369788a13.131294 13.131294 0 1 1 0-26.250541 13.131294 13.131294 0 0 1 0 26.250541z m0-22.961694a9.842447 9.842447 0 1 0 0 19.684894 9.842447 9.842447 0 0 0 0-19.684894z" fill="#141737" p-id="13109"></path><path d="M603.641976 39.369788a13.131294 13.131294 0 1 1 0-26.250541 13.131294 13.131294 0 0 1 0 26.250541z m0-22.961694a9.842447 9.842447 0 1 0 0 19.684894 9.842447 9.842447 0 0 0 0-19.684894z" fill="#141737" p-id="13110"></path><path d="M629.892518 39.369788a13.131294 13.131294 0 1 1 0-26.250541 13.131294 13.131294 0 0 1 0 26.250541z m0-22.961694a9.842447 9.842447 0 1 0 0 19.684894 9.842447 9.842447 0 0 0 0-19.684894z" fill="#141737" p-id="13111"></path><path d="M838.752376 26.250541h12.047059v564.272188h-12.047059z" fill="#141737" p-id="13112"></path><path d="M944.838776 314.946259H1102.305882v26.250541H944.838776zM1207.283953 314.946259h157.467106v26.250541h-157.467106z" fill="#C3CDFA" p-id="13113"></path><path d="M1115.437176 328.065506H957.945976v-26.238494h157.467106v26.238494z m-155.370917-2.385318h153.238588v-21.467859h-153.238588v21.467859z" fill="#141737" p-id="13114"></path><path d="M944.838776 472.413365H1102.305882v26.250541H944.838776z" fill="#C3CDFA" p-id="13115"></path><path d="M1115.437176 485.544659H957.945976v-26.250541h157.467106v26.250541z m-155.370917-2.385318h153.238588v-21.479906h-153.238588v21.479906z" fill="#141737" p-id="13116"></path><path d="M944.838776 392.6016h406.805083v26.250541H944.838776z" fill="#C3CDFA" p-id="13117"></path><path d="M1364.763106 406.805082H957.958024v-26.250541h406.805082v26.250541z m-404.660706-2.385317h402.516329v-21.479906H960.1024v21.479906zM1364.763106 328.065506h-157.479153v-26.238494h157.479153v26.238494z m-155.358871-2.385318h153.238589v-21.467859h-153.238589v21.467859zM695.5008 393.685835a91.858824 91.858824 0 1 1 91.858824-91.858823 91.967247 91.967247 0 0 1-91.858824 91.858823z m0-180.946823a89.075953 89.075953 0 1 0 89.075953 89.088 89.172329 89.172329 0 0 0-89.075953-89.075953zM1010.447059 995.966494h393.685835v12.047059H1010.447059z" fill="#141737" p-id="13118"></path></svg>